<!DOCTYPE svg PUBLIC "-//W3C//DTD SVG 1.1//EN" "http://www.w3.org/Graphics/SVG/1.1/DTD/svg11.dtd">
<svg xmlns="http://www.w3.org/2000/svg" viewBox="0 0 59 61">
<path fill="#262627" d="M24.207 19.963c-.936 1.629-2.576 3.092-3.645 3.25-2.49.368-3.753 5.107-3.36 12.611L17.5 41.5l10.1.283c12.31.346 12.341.318 11.646-10.133-.495-7.449-.661-7.899-3.246-8.8-1.498-.522-3.227-2.052-3.841-3.4-1.63-3.578-5.757-3.312-7.952.513m1.863-.094C24.858 22.134 25.576 23 28.667 23c2.515 0 3.071-1.862 1.133-3.8-1.666-1.666-2.567-1.504-3.73.669m-6.403 4.798c-.367.366-.667 3.966-.667 8V40h19.258l-.712-7.23c-.392-3.977-.927-7.577-1.188-8C35.435 23.276 34 24.025 34 26c0 1.1-.398 2-.883 2-.486 0-1.119-.9-1.407-2-.776-2.97-6.481-2.795-7.601.234l-.826 2.233-.709-2.233c-.717-2.26-1.69-2.784-2.907-1.567" fill-rule="evenodd"/>
</svg>