<!DOCTYPE svg PUBLIC "-//W3C//DTD SVG 1.1//EN" "http://www.w3.org/Graphics/SVG/1.1/DTD/svg11.dtd">
<svg xmlns="http://www.w3.org/2000/svg" viewBox="0 0 60 60">
<path fill="#754e2e" d="M5.655 5.829c-2.747 3.035-2.06 4.23 8.595 14.943L24.5 31.077 14.25 41.121C4.243 50.927 2.749 53.349 5.2 55.8c2.921 2.921 5.999 1.279 15.962-8.509l9.883-9.709 9.745 9.709c9.596 9.56 12.381 11.138 15.01 8.509 2.63-2.63 1.05-5.414-8.531-15.032L37.538 31l9.731-9.768C57.285 11.178 58.971 7.881 55.548 5.04c-2.463-2.044-4.273-.875-14.539 9.391l-9.932 9.93-10.345-10.18C10.009 3.629 8.435 2.757 5.655 5.829" fill-rule="evenodd"/>
</svg>