<!DOCTYPE svg PUBLIC "-//W3C//DTD SVG 1.1//EN" "http://www.w3.org/Graphics/SVG/1.1/DTD/svg11.dtd">
<svg xmlns="http://www.w3.org/2000/svg" viewBox="0 0 399 226">
<path d="M291.2 40.2c-1.646 1.646-1.646 21.954 0 23.6 1.837 1.837 5.608 1.428 6.765-.734C298.534 62.002 299 57.022 299 52c0-5.022-.466-10.002-1.035-11.066-1.157-2.162-4.928-2.571-6.765-.734M25.984 44.834c-9.701 5.107-14.067 22.37-8.42 33.291 4.97 9.609 28.171 16.383 37.22 10.866 4.491-2.739 5-4.662 2.023-7.638l-2.474-2.474-4.815 2.56c-6.727 3.577-13.135 2.716-19.593-2.634-10.344-8.569-7.001-29.738 4.304-27.255 5.046 1.109 10.971.678 12.561-.912 5.509-5.509-12.057-10.409-20.806-5.804m43.266.457c-1.237.558-2.25 1.42-2.25 1.915 0 .495-1.125 2.556-2.5 4.579-6.83 10.052-.308 28.119 10.177 28.193 6.456.045 12.407-11.356 10.205-19.548C82.06 49.934 74.719 42.824 69.25 45.291m92.823 3.572c-1.156 2.161-.599 19.712.815 25.637.524 2.2 1.265 7.021 1.645 10.713.849 8.24 2.007 9.987 6.621 9.987 8.189 0 17.846-8.242 17.846-15.232C189 73.091 179.193 65 170.857 65c-2.623 0-3.857-3.114-3.857-9.734 0-7.33-2.613-10.726-4.927-6.403m-58.954 4.135c-.675 2.25-3.266 8.459-5.759 13.797-7.139 15.286-8.295 18.57-7.215 20.5 2.456 4.387 7.57-.614 12.862-12.578 2.707-6.119 3.166-5.709 7.043 6.286 2.947 9.118 3.45 9.997 5.72 9.997 3.221 0 2.822-3.214-3.168-25.5-3.603-13.406-4.622-16.048-6.279-16.297-1.546-.232-2.246.596-3.204 3.795m21.548-3.331c-.994.994-.809 6.588.476 14.366.899 5.449.875 7.241-.117 8.436-1.023 1.233-.946 2.179.41 5.037 1.455 3.067 1.522 4.53.519 11.389l-1.151 7.87-8.652.445c-13.716.705-23.338 6.033-18.904 10.467 1.272 1.272 2.193 1.208 7.353-.508 8.577-2.853 8.399-3.37 8.399 24.457 0 23.61.612 28.374 3.647 28.374 4.917 0 5.358-2.014 4.689-21.388-.345-9.961-.298-21.599.104-25.862l.731-7.75h5.226c6.378 0 10.325-2.783 8.577-6.048-.602-1.125-2.088-1.952-3.509-1.952-1.356 0-2.465-.45-2.465-1s.402-1 .893-1c1.322 0 2.12-2.664 3.075-10.269 1.011-8.056 2.147-9.731 6.598-9.731C145.36 75 147 77.86 147 86.223c0 7.341 1.232 8.528 5.559 5.353 1.745-1.281 1.935-2.668 1.885-13.75C154.345 56.012 152.95 51 146.978 51c-4.278 0-5.055 2.35-2.85 8.623 2.324 6.614 2.329 7.653.043 9.722-5.201 4.707-9.791.71-10.813-9.414-.93-9.207-1.745-10.931-5.167-10.931-1.572 0-3.158.3-3.524.667m-53.438 5.071c-4.096 1.427-5.532 11.236-2.006 13.705 2.609 1.828 7.352 2.054 8.374.4 2.879-4.658-2.064-15.606-6.368-14.105M261.2 57.2c-3.331 3.331.13 11.8 4.821 11.8 5.125 0 4.505-10.089-.742-12.084-2.967-1.128-2.645-1.15-4.079.284m58.873 10.435c-2.322 2.951-2.552 4.601-1.038 7.431 2.402 4.487 10.866-.45 9.382-5.473-1.44-4.871-5.334-5.785-8.344-1.958m-93.176 1.248c-3.383 2.739-1.591 5.799 7.304 12.469 9.073 6.803 12.14 7.563 13.713 3.398 1.261-3.34-.176-5.211-9.063-11.8-9.054-6.713-8.795-6.625-11.954-4.067m-58.605 5.938c1.496 12.624 3.612 15.376 9.576 12.448 9.703-4.763 6.04-14.593-6.274-16.838l-3.906-.712.604 5.102m110.454-1.735c-31.83 7.501-41.223 49.805-16.903 76.123C291.661 181.476 338 166.116 338 123.965c0-30.787-31.121-57.51-59.254-50.879M280 83.545c-25.13 7.002-30.584 39.883-10.039 60.519 23.429 23.533 59.13 10.753 59.024-21.13-.08-24.232-26.664-45.608-48.985-39.389m67.338 5.921c-8.307 3.869-10.298 6.42-7.886 10.101 2.054 3.135 3.07 3.073 12.164-.745 9.09-3.815 11.456-6.537 8.976-10.322-2.148-3.278-4.511-3.106-13.254.966M229.099 108.25c-1.535 4.13 1.217 7.75 5.892 7.75 3.169 0 5.009-1.67 5.009-4.545 0-5.1-9.192-7.803-10.901-3.205m-84.61 20c1.069 9.749 4.23 23.392 6.071 26.201 2.961 4.52 9.946 1.831 11.993-4.618 1.02-3.213 2.946-1.422 2.966 2.76.022 4.725.958 6.407 3.565 6.407 3.032 0 4.101-4.133 2.932-11.336-.551-3.39-1.004-8.234-1.008-10.765-.024-14.33-4.9-14.525-9.964-.399-5.24 14.617-6.33 13.923-9.044-5.75l-1.207-8.75H143.804l.685 6.25m203.261-5.17c-4.337 2.526-.648 9.92 4.949 9.92 3.104 0 5.803-4.194 4.393-6.828-.768-1.435-6.308-4.498-7.491-4.142-.056.017-.889.489-1.851 1.05m-114.973 17.597c-7.818 3.622-9.489 5.504-8.278 9.321 1.142 3.598 4.986 3.519 13.271-.273 8.957-4.1 10.745-6.052 8.919-9.734-1.779-3.588-5.037-3.427-13.912.686M337.95 152.56c-2.338 2.818.148 6.396 8.834 12.709 7.468 5.429 8.526 5.911 10.75 4.898 5.269-2.401 3.465-6.187-6.506-13.646-7.603-5.688-10.833-6.666-13.078-3.961m-75.782 9.164c-2.726 1.018-5.089 6.355-3.935 8.888 2.499 5.485 10.201 2.291 9.564-3.967-.313-3.077-3.382-5.76-5.629-4.921m56.583 8.047c-2.713.582-3.23 4.722-1.056 8.459 4.258 7.318 11.904 2.752 7.886-4.709-1.832-3.402-3.691-4.423-6.83-3.75m-29.232 4.591c-2.014 1.473-3.448 15.799-2.114 21.116 1.024 4.08 5.344 5.55 7.712 2.625 2.846-3.514 2.761-20.225-.117-23.103-2.366-2.366-3.014-2.441-5.481-.638" fill-rule="evenodd"/>
</svg>