<!DOCTYPE svg PUBLIC "-//W3C//DTD SVG 1.1//EN" "http://www.w3.org/Graphics/SVG/1.1/DTD/svg11.dtd">
<svg xmlns="http://www.w3.org/2000/svg" viewBox="0 0 51 49">
<path fill="#252426" d="M22.035 14.934c-1.783 3.331-1.255 7.878 1.058 9.116 5.288 2.83 10.824-3.475 7.503-8.544-2.056-3.137-7.011-3.468-8.561-.572m1.005 1.518c-1.59 1.916-.449 5.283 2.059 6.079 3.771 1.197 6.522-3.51 3.701-6.331-1.628-1.628-4.297-1.511-5.76.252m-5.423 12.419c-1.131 1.25-1.644 3.134-1.437 5.285l.32 3.344h19l.3-4.086c.37-5.053-1.531-7.164-4.85-5.387-2.138 1.144-6.927.948-10.013-.41-.961-.423-2.24.061-3.32 1.254m1.081.765c-.384.383-.698 1.972-.698 3.531V36h8.5c8.283 0 8.5-.061 8.5-2.378 0-3.434-2.296-5.069-5.051-3.595-2.114 1.131-5.825.96-9.001-.417-.854-.37-1.866-.358-2.25.026" fill-rule="evenodd"/>
</svg>